<svg width="85" height="49" viewBox="0 0 85 49" fill="none" xmlns="http://www.w3.org/2000/svg">
<path d="M0.438892 21.0071C-0.187529 16.4829 -3.66764 13.8579 -8.18184 13.8579C-13.5014 13.8579 -17.5085 17.7358 -17.5085 24.3181C-17.5085 30.8906 -13.5512 34.7784 -8.18184 34.7784C-3.33951 34.7784 -0.127869 31.6463 0.438892 27.7585L-3.27985 27.7386C-3.74719 30.125 -5.69605 31.4673 -8.13213 31.4673C-11.4333 31.4673 -13.7997 28.9914 -13.7997 24.3181C-13.7997 19.7244 -11.4531 17.169 -8.12218 17.169C-5.64633 17.169 -3.70741 18.571 -3.27985 21.0071H0.438892Z" fill="#474747"/>
<path d="M8.05288 34.8082C10.4492 34.8082 11.881 33.6846 12.5373 32.4019H12.6566V34.5H16.1168V24.2784C16.1168 20.2414 12.8256 19.0284 9.91226 19.0284C6.70061 19.0284 4.2347 20.4602 3.43925 23.2443L6.80004 23.7215C7.158 22.6775 8.1722 21.7826 9.93214 21.7826C11.6026 21.7826 12.5174 22.6377 12.5174 24.1392V24.1988C12.5174 25.2329 11.4336 25.2826 8.73896 25.571C5.77589 25.8892 2.94209 26.7741 2.94209 30.2144C2.94209 33.2173 5.13953 34.8082 8.05288 34.8082ZM8.98754 32.1633C7.48612 32.1633 6.41226 31.4772 6.41226 30.1548C6.41226 28.7727 7.61538 28.196 9.22618 27.9673C10.1708 27.838 12.06 27.5994 12.5273 27.2215V29.0213C12.5273 30.7215 11.1552 32.1633 8.98754 32.1633Z" fill="#474747"/>
<path d="M27.3625 19.2272H24.3498V15.5681H20.7503V19.2272H18.5827V22.0113H20.7503V30.5028C20.7304 33.3764 22.8185 34.7883 25.523 34.7088C26.5472 34.6789 27.2532 34.4801 27.6409 34.3508L27.0344 31.5369C26.8355 31.5866 26.4279 31.6761 25.9804 31.6761C25.0756 31.6761 24.3498 31.3579 24.3498 29.9062V22.0113H27.3625V19.2272Z" fill="#474747"/>
<path d="M34.7677 34.8082C37.164 34.8082 38.5958 33.6846 39.2521 32.4019H39.3714V34.5H42.8316V24.2784C42.8316 20.2414 39.5404 19.0284 36.6271 19.0284C33.4154 19.0284 30.9495 20.4602 30.1541 23.2443L33.5149 23.7215C33.8728 22.6775 34.887 21.7826 36.647 21.7826C38.3174 21.7826 39.2322 22.6377 39.2322 24.1392V24.1988C39.2322 25.2329 38.1484 25.2826 35.4538 25.571C32.4907 25.8892 29.6569 26.7741 29.6569 30.2144C29.6569 33.2173 31.8544 34.8082 34.7677 34.8082ZM35.7024 32.1633C34.201 32.1633 33.1271 31.4772 33.1271 30.1548C33.1271 28.7727 34.3302 28.196 35.941 27.9673C36.8856 27.838 38.7748 27.5994 39.2421 27.2215V29.0213C39.2421 30.7215 37.87 32.1633 35.7024 32.1633Z" fill="#474747"/>
<path d="M50.0504 14.1363H46.451V34.5H50.0504V14.1363Z" fill="#474747"/>
<path d="M60.4137 34.7983C64.8881 34.7983 67.7318 31.6463 67.7318 26.9233C67.7318 22.1903 64.8881 19.0284 60.4137 19.0284C55.9392 19.0284 53.0955 22.1903 53.0955 26.9233C53.0955 31.6463 55.9392 34.7983 60.4137 34.7983ZM60.4335 31.9147C57.9577 31.9147 56.7446 29.7073 56.7446 26.9133C56.7446 24.1193 57.9577 21.8821 60.4335 21.8821C62.8696 21.8821 64.0827 24.1193 64.0827 26.9133C64.0827 29.7073 62.8696 31.9147 60.4335 31.9147Z" fill="#474747"/>
<path d="M77.4289 40.5454C81.5553 40.5454 84.598 38.6562 84.598 34.7485V19.2272H81.0482V21.7528H80.8494C80.3025 20.6491 79.159 19.0284 76.4644 19.0284C72.9346 19.0284 70.1605 21.7926 70.1605 26.8139C70.1605 31.7954 72.9346 34.2812 76.4545 34.2812C79.0695 34.2812 80.2926 32.8792 80.8494 31.7556H81.0284V34.6491C81.0284 36.8963 79.5369 37.821 77.4886 37.821C75.321 37.821 74.3664 36.7968 73.9289 35.9019L70.6875 36.6875C71.3437 38.8252 73.5411 40.5454 77.4289 40.5454ZM77.4588 31.4573C75.0823 31.4573 73.8295 29.6079 73.8295 26.794C73.8295 24.0198 75.0625 21.9815 77.4588 21.9815C79.7755 21.9815 81.0482 23.9005 81.0482 26.794C81.0482 29.7073 79.7556 31.4573 77.4588 31.4573Z" fill="#474747"/>
</svg>
