<svg width="113" height="49" viewBox="0 0 113 49" fill="none" xmlns="http://www.w3.org/2000/svg">
<path d="M14.778 19.9497C20.5389 17.1945 25.0474 12.519 27.6357 6.67457C25.9658 4.92125 23.7951 3.66888 21.4573 2.91746L20.2049 2.5C20.1214 2.66698 20.0379 2.91747 20.0379 3.08445C18.0342 8.76187 13.9431 13.3539 8.43264 15.9421C4.59203 17.7789 1.75332 21.1186 0.417457 25.1262L0 26.3786C0.166983 26.462 0.417461 26.5455 0.584444 26.5455C2.17078 27.13 3.75712 27.8814 5.25996 28.7998C7.34725 25.0427 10.6869 21.87 14.778 19.9497Z" fill="#474747"/>
<path d="M38.9906 20.2837C35.9014 24.9592 31.6433 28.7163 26.3834 31.2211C22.1253 33.2249 18.8692 36.982 17.3663 41.4905L16.9489 42.9099C18.5352 44.3292 20.4555 45.4146 22.5428 46.0826L23.7951 46.5C23.8786 46.333 23.9621 46.0826 23.9621 45.9156C25.9659 40.2382 30.057 35.6461 35.5674 33.0579C39.4081 31.2211 42.3302 27.8814 43.5826 23.8738L44.0001 22.6215C42.2468 22.1205 40.5769 21.2856 38.9906 20.2837Z" fill="#474747"/>
<path d="M13.6092 38.5682C15.6965 33.5587 19.5371 29.4676 24.4631 27.1299C28.9716 24.9591 32.7287 21.6194 35.3169 17.5283C33.3966 15.6915 31.8103 13.6042 30.6414 11.0995C27.5522 16.7769 22.7097 21.3689 16.7819 24.2077C13.3587 25.794 10.6035 28.5492 8.93365 31.8889C10.7705 33.6422 12.2733 35.813 13.4422 38.2342C13.4422 38.2342 13.5257 38.4012 13.6092 38.5682Z" fill="#474747"/>
<path d="M53.95 34.5001H68.02V30.6001H58.48V13.5001H53.95V34.5001Z" fill="#474747"/>
<path d="M82.7198 19.3801H78.5198V27.6601C78.5198 29.5801 77.2298 31.0201 75.3998 31.0201C73.6898 31.0201 72.4898 29.7001 72.4898 27.8701V19.3801H68.3198V28.8001C68.3198 32.2501 70.5398 34.7401 73.9298 34.7401C75.9998 34.7401 77.6798 33.8401 78.5198 32.4001V34.5001H82.7198V19.3801Z" fill="#474747"/>
<path d="M84.28 34.5001H88.48V25.9201C88.48 23.9701 89.59 22.6801 91.33 22.6801C92.95 22.6801 93.97 23.9701 93.97 25.9201V34.5001H98.17V25.9201C98.17 23.9701 99.28 22.6801 101.02 22.6801C102.64 22.6801 103.69 23.9701 103.69 25.9201V34.5001H107.86V24.6001C107.86 21.5701 105.73 19.1401 102.43 19.1401C100 19.1401 98.11 20.4301 97.39 21.9001C96.67 20.1001 95.14 19.1401 92.77 19.1401C90.73 19.1401 89.29 20.1301 88.48 21.5101V19.3801H84.28V34.5001Z" fill="#474747"/>
<path d="M109.291 12.8101V17.2201H113.731V12.8101H109.291ZM109.411 34.5001H113.611V19.3801H109.411V34.5001Z" fill="#474747"/>
<path d="M115.176 34.5001H119.377V26.2201C119.377 24.2701 120.666 22.8601 122.496 22.8601C124.236 22.8601 125.407 24.1801 125.407 26.0101V34.5001H129.606V25.0801C129.606 21.6001 127.386 19.1401 123.966 19.1401C121.896 19.1401 120.216 20.0101 119.377 21.4801V19.3801H115.176V34.5001Z" fill="#474747"/>
<path d="M138.367 34.7401C143.017 34.7401 146.347 31.4401 146.347 26.9401C146.347 22.4401 143.017 19.1401 138.367 19.1401C133.717 19.1401 130.387 22.4401 130.387 26.9401C130.387 31.4401 133.717 34.7401 138.367 34.7401ZM138.367 31.1401C136.117 31.1401 134.587 29.4301 134.587 26.9401C134.587 24.4201 136.117 22.7101 138.367 22.7101C140.617 22.7101 142.147 24.4201 142.147 26.9401C142.147 29.4301 140.617 31.1401 138.367 31.1401Z" fill="#474747"/>
<path d="M161.558 19.3801H157.358V27.6601C157.358 29.5801 156.068 31.0201 154.238 31.0201C152.528 31.0201 151.328 29.7001 151.328 27.8701V19.3801H147.158V28.8001C147.158 32.2501 149.378 34.7401 152.768 34.7401C154.838 34.7401 156.518 33.8401 157.358 32.4001V34.5001H161.558V19.3801Z" fill="#474747"/>
<path d="M168.638 34.7401C172.178 34.7401 174.518 32.8501 174.518 29.9701C174.518 23.1301 166.238 26.6401 166.238 23.5501C166.238 22.5901 167.048 22.0801 168.218 22.0801C169.358 22.0801 170.528 22.7701 170.708 24.0601H174.338C174.188 21.0901 171.728 19.1401 168.098 19.1401C165.008 19.1401 162.698 21.0301 162.698 23.7001C162.698 30.0601 170.828 27.0301 170.828 30.1201C170.828 30.9601 169.928 31.5901 168.638 31.5901C167.078 31.5901 166.028 30.7501 165.878 29.4001H162.278C162.428 32.6701 164.948 34.7401 168.638 34.7401Z" fill="#474747"/>
</svg>
