<svg width="182" height="49" viewBox="0 0 182 49" fill="none" xmlns="http://www.w3.org/2000/svg">
<g clip-path="url(#clip0_6_1862)">
<path d="M27.2693 4.62169L23.0485 3.49072L19.4916 16.7654L16.2804 4.78093L12.0595 5.9119L15.529 18.8602L6.88718 10.2184L3.79732 13.3083L13.2763 22.7874L1.47173 19.6243L0.340759 23.8451L13.2388 27.3011C13.0911 26.6642 13.013 26.0006 13.013 25.3187C13.013 20.492 16.9258 16.5792 21.7525 16.5792C26.5792 16.5792 30.4919 20.492 30.4919 25.3187C30.4919 25.9962 30.4148 26.6557 30.2689 27.2889L41.9909 30.4297L43.1218 26.209L30.1725 22.7392L41.9779 19.5759L40.8469 15.3551L27.8981 18.8247L36.5399 10.1829L33.45 7.09307L24.1025 16.4406L27.2693 4.62169Z" fill="#474747"/>
<path d="M30.2566 27.338C29.8947 28.868 29.1307 30.2424 28.0825 31.3435L36.5745 39.8357L39.6643 36.7458L30.2566 27.338Z" fill="#474747"/>
<path d="M27.9967 31.4323C26.9358 32.5159 25.5951 33.3245 24.0916 33.7413L27.1817 45.2735L31.4024 44.1425L27.9967 31.4323Z" fill="#474747"/>
<path d="M23.9339 33.7835C23.2364 33.9628 22.5052 34.0581 21.7517 34.0581C20.9445 34.0581 20.1628 33.9486 19.4207 33.7437L16.3278 45.2866L20.5486 46.4175L23.9339 33.7835Z" fill="#474747"/>
<path d="M19.2715 33.7012C17.7909 33.2638 16.474 32.4448 15.4348 31.3581L6.92186 39.8711L10.0117 42.9609L19.2715 33.7012Z" fill="#474747"/>
<path d="M15.3646 31.2829C14.3432 30.1893 13.5991 28.8333 13.245 27.327L1.4848 30.4781L2.61576 34.6989L15.3646 31.2829Z" fill="#474747"/>
</g>
<path d="M68.5199 13.4092V28.6192L58.7699 13.4092H54.8699V34.4092H58.7699V19.3192L68.5199 34.4092H72.4199V13.4092H68.5199Z" fill="#474747"/>
<path d="M74.1773 17.3392H78.1973V13.4092H74.1773V17.3392ZM74.2373 34.4092V19.4092H78.1373V34.4092H74.2373Z" fill="#474747"/>
<path d="M94.9174 26.9092C94.9174 21.7192 91.2274 19.2592 87.3274 19.2292C83.3974 19.1992 79.7674 21.7192 79.7674 26.9092C79.7674 32.0992 83.3974 34.6192 87.3274 34.5892C90.8974 34.5592 93.3574 32.9092 94.4974 30.1792L91.4674 28.9192C90.5374 30.7792 89.0674 31.4392 87.3274 31.4692C85.8274 31.4992 84.1174 30.7792 83.7574 28.1092H94.8274C94.8874 27.7192 94.9174 27.3292 94.9174 26.9092ZM87.3274 22.3192C88.8274 22.3492 90.3574 23.1592 90.8374 25.3192H83.8174C84.3274 23.1292 85.8574 22.2892 87.3274 22.3192Z" fill="#474747"/>
<path d="M103.93 22.1992V19.2292H101.47V15.2092L97.5705 16.4092V19.2292H95.1105V22.1992H97.5705V29.9692C97.5705 32.9092 97.8105 34.4092 102.37 34.4092H103.42V30.9892H102.37C101.65 30.9892 101.47 30.8692 101.47 29.9692V22.1992H103.93Z" fill="#474747"/>
<path d="M109.726 31.1392L118.006 22.6792V19.4092H105.586V22.6792H113.626L105.346 31.1392V34.4092H118.096V31.1392H109.726Z" fill="#474747"/>
<path d="M119.494 30.1792L123.424 29.5792C123.694 31.0792 125.464 31.6492 126.544 31.6492C127.654 31.6492 129.574 31.4092 129.574 29.6092C129.574 26.0992 119.944 30.4792 119.944 23.7592C119.944 19.4392 124.954 19.1992 126.544 19.1992C128.044 19.1992 132.394 19.4392 133.294 22.9192L129.574 23.6992C129.244 22.1092 127.564 21.8092 126.664 21.8092C125.764 21.8092 123.844 22.0192 123.844 23.7592C123.844 27.2392 133.474 22.7992 133.474 29.6092C133.474 34.1992 128.194 34.5892 126.544 34.5892C125.044 34.5892 120.274 34.1992 119.494 30.1792Z" fill="#474747"/>
<path d="M138.54 26.9092C138.54 30.5692 140.49 31.6792 142.53 31.6492C144.36 31.6192 145.62 30.8692 146.37 28.7692L149.58 30.3292C148.41 33.3892 145.56 34.5592 142.53 34.5892C138.6 34.6192 134.64 32.0992 134.64 26.9092C134.64 21.7192 138.6 19.1992 142.53 19.2292C145.56 19.2592 148.41 20.4292 149.58 23.4892L146.37 25.0492C145.62 22.9492 144.36 22.1992 142.53 22.1692C140.49 22.1392 138.54 23.2492 138.54 26.9092Z" fill="#474747"/>
<path d="M160.05 19.1692C158.04 19.1692 156.21 20.2192 155.04 22.4692V13.4092H151.14V34.4092H155.04V29.0992C155.04 22.2292 157.89 21.6592 158.94 21.6592C160.62 21.6592 160.86 23.3992 160.86 25.9492V34.4092H164.76V25.9492C164.76 22.7692 164.25 19.1692 160.05 19.1692Z" fill="#474747"/>
<path d="M181.226 26.9092C181.226 21.7192 177.536 19.2592 173.636 19.2292C169.706 19.1992 166.076 21.7192 166.076 26.9092C166.076 32.0992 169.706 34.6192 173.636 34.5892C177.206 34.5592 179.666 32.9092 180.806 30.1792L177.776 28.9192C176.846 30.7792 175.376 31.4392 173.636 31.4692C172.136 31.4992 170.426 30.7792 170.066 28.1092H181.136C181.196 27.7192 181.226 27.3292 181.226 26.9092ZM173.636 22.3192C175.136 22.3492 176.666 23.1592 177.146 25.3192H170.126C170.636 23.1292 172.166 22.2892 173.636 22.3192Z" fill="#474747"/>
<defs>
<clipPath id="clip0_6_1862">
<rect width="44" height="44" fill="white" transform="translate(-6.10352e-05 2.5)"/>
</clipPath>
</defs>
</svg>
