<svg width="40" height="40" viewBox="0 0 40 40" fill="none" xmlns="http://www.w3.org/2000/svg">
<g clip-path="url(#clip0_54_47)">
<mask id="mask0_54_47" style="mask-type:alpha" maskUnits="userSpaceOnUse" x="0" y="0" width="40" height="40">
<rect width="40" height="40" fill="#C4C4C4"/>
</mask>
<g mask="url(#mask0_54_47)">
<g filter="url(#filter0_d_54_47)">
<path d="M19.9997 5.28979L7.26062 12.6447L12.5685 15.7092L19.9996 11.4189L19.9997 5.28979Z" fill="#FFF6AE"/>
<path d="M32.7388 12.6447L19.9997 5.28979L19.9996 11.4189L27.4307 15.7092L32.7388 12.6447Z" fill="#FFC121"/>
<path d="M32.7388 27.3545V12.6447L27.4307 15.7092V24.29L32.7388 27.3545Z" fill="#FFA800"/>
<path d="M19.9997 34.7094L32.7388 27.3545L27.4307 24.29L19.9996 28.5803L19.9997 34.7094Z" fill="#EB7F00"/>
<path d="M7.26062 27.3545L19.9997 34.7094L19.9996 28.5803L12.5685 24.29L7.26062 27.3545Z" fill="#FFA800"/>
<path d="M7.26062 12.6447V27.3545L12.5685 24.29V15.7092L7.26062 12.6447Z" fill="#FFC121"/>
<path d="M27.4307 15.7092L19.9996 11.4189L12.5685 15.7092V24.29L19.9996 28.5803L27.4307 24.29V15.7092Z" fill="#FFB800"/>
</g>
</g>
</g>
<defs>
<filter id="filter0_d_54_47" x="-4.73938" y="-6.71021" width="49.4781" height="53.4197" filterUnits="userSpaceOnUse" color-interpolation-filters="sRGB">
<feFlood flood-opacity="0" result="BackgroundImageFix"/>
<feColorMatrix in="SourceAlpha" type="matrix" values="0 0 0 0 0 0 0 0 0 0 0 0 0 0 0 0 0 0 127 0" result="hardAlpha"/>
<feOffset/>
<feGaussianBlur stdDeviation="6"/>
<feColorMatrix type="matrix" values="0 0 0 0 1 0 0 0 0 0.780392 0 0 0 0 0 0 0 0 0.3 0"/>
<feBlend mode="normal" in2="BackgroundImageFix" result="effect1_dropShadow_54_47"/>
<feBlend mode="normal" in="SourceGraphic" in2="effect1_dropShadow_54_47" result="shape"/>
</filter>
<clipPath id="clip0_54_47">
<rect width="40" height="40" fill="white"/>
</clipPath>
</defs>
</svg>
